<svg width="16" height="16" viewBox="0 0 16 16" fill="none" xmlns="http://www.w3.org/2000/svg">
<path d="M8.33333 5.33333C9.25381 5.33333 10 4.58714 10 3.66667C10 2.74619 9.25381 2 8.33333 2C7.41286 2 6.66667 2.74619 6.66667 3.66667C6.66667 4.58714 7.41286 5.33333 8.33333 5.33333Z" fill="#1C4980"/>
<path d="M8.33333 10C9.25381 10 10 9.25381 10 8.33333C10 7.41286 9.25381 6.66667 8.33333 6.66667C7.41286 6.66667 6.66667 7.41286 6.66667 8.33333C6.66667 9.25381 7.41286 10 8.33333 10Z" fill="#1C4980"/>
<path d="M8.33333 14.6667C9.25381 14.6667 10 13.9205 10 13C10 12.0795 9.25381 11.3333 8.33333 11.3333C7.41286 11.3333 6.66667 12.0795 6.66667 13C6.66667 13.9205 7.41286 14.6667 8.33333 14.6667Z" fill="#1C4980"/>
</svg>
