<svg width="20" height="21" viewBox="0 0 20 21" fill="none" xmlns="http://www.w3.org/2000/svg">
<mask id="mask0_1_1327" style="mask-type:alpha" maskUnits="userSpaceOnUse" x="0" y="0" width="20" height="21">
<rect y="0.5" width="20" height="20" fill="#D9D9D9"/>
</mask>
<g mask="url(#mask0_1_1327)">
<path d="M6.005 14.495H7.505L12.4108 9.58925L10.9108 8.08925L6.005 12.995V14.495ZM13.1191 8.88092L13.8691 8.13092C13.9802 8.01981 14.0358 7.90175 14.0358 7.77675C14.0358 7.65175 13.9802 7.5337 13.8691 7.42259L13.0775 6.63092C12.9663 6.51981 12.8483 6.46425 12.7233 6.46425C12.5983 6.46425 12.4802 6.51981 12.3691 6.63092L11.6191 7.38092L13.1191 8.88092ZM4.55981 17.6694C4.08429 17.6694 3.67721 17.5001 3.33859 17.1615C2.99995 16.8228 2.83063 16.4158 2.83063 15.9402V5.05981C2.83063 4.58429 2.99995 4.17721 3.33859 3.83858C3.67721 3.49995 4.08429 3.33063 4.55981 3.33063H7.9579C8.09226 2.89343 8.34483 2.53413 8.71561 2.25273C9.08637 1.97133 9.51451 1.83063 10 1.83063C10.4855 1.83063 10.9137 1.97133 11.2844 2.25273C11.6552 2.53413 11.9078 2.89343 12.0421 3.33063H15.4402C15.9158 3.33063 16.3228 3.49995 16.6615 3.83858C17.0001 4.17721 17.1694 4.58429 17.1694 5.05981V15.9402C17.1694 16.4158 17.0001 16.8228 16.6615 17.1615C16.3228 17.5001 15.9158 17.6694 15.4402 17.6694H4.55981ZM4.55981 15.9402H15.4402V5.05981H4.55981V15.9402ZM10 4.53988C10.156 4.53988 10.2849 4.48889 10.3869 4.38692C10.4889 4.28495 10.5399 4.15598 10.5399 4.00002C10.5399 3.84406 10.4889 3.7151 10.3869 3.61313C10.2849 3.51116 10.156 3.46017 10 3.46017C9.84406 3.46017 9.7151 3.51116 9.61313 3.61313C9.51116 3.7151 9.46017 3.84406 9.46017 4.00002C9.46017 4.15598 9.51116 4.28495 9.61313 4.38692C9.7151 4.48889 9.84406 4.53988 10 4.53988Z" fill="#0073E6"/>
</g>
</svg>
