<svg width="20" height="21" viewBox="0 0 20 21" fill="none" xmlns="http://www.w3.org/2000/svg">
<mask id="mask0_1_1333" style="mask-type:alpha" maskUnits="userSpaceOnUse" x="0" y="0" width="20" height="21">
<rect y="0.5" width="20" height="20" fill="#D9D9D9"/>
</mask>
<g mask="url(#mask0_1_1333)">
<path d="M11.6295 12.8007C11.8656 12.8007 12.0636 12.7209 12.2233 12.5611C12.383 12.4014 12.4629 12.2035 12.4629 11.9674C12.4629 11.7313 12.383 11.5334 12.2233 11.3736C12.0636 11.2139 11.8656 11.134 11.6295 11.134C11.3934 11.134 11.1955 11.2139 11.0358 11.3736C10.8761 11.5334 10.7962 11.7313 10.7962 11.9674C10.7962 12.2035 10.8761 12.4014 11.0358 12.5611C11.1955 12.7209 11.3934 12.8007 11.6295 12.8007ZM11.0254 10.3437H12.2337C12.2337 9.98082 12.2674 9.70923 12.3349 9.52896C12.4024 9.34871 12.5512 9.1505 12.7812 8.93432C13.0696 8.65986 13.3292 8.38208 13.56 8.10098C13.7908 7.81989 13.9062 7.46738 13.9062 7.04346C13.9062 6.41182 13.696 5.90669 13.2755 5.52807C12.855 5.14944 12.3012 4.96013 11.614 4.96013C11.0833 4.96013 10.6096 5.1086 10.1929 5.40554C9.77625 5.7025 9.48625 6.11047 9.3229 6.62944L10.4062 7.08015C10.5001 6.76734 10.6547 6.52677 10.87 6.35844C11.0853 6.19012 11.3333 6.10596 11.6141 6.10596C11.9387 6.10596 12.2005 6.19541 12.3995 6.37429C12.5984 6.5532 12.6979 6.78516 12.6979 7.07019C12.6979 7.36345 12.5903 7.61844 12.375 7.83515C12.1597 8.05186 11.934 8.27241 11.6979 8.49682C11.4123 8.7613 11.2288 9.01145 11.1474 9.24727C11.066 9.48308 11.0254 9.84857 11.0254 10.3437ZM6.67436 15.5548C6.19543 15.5548 5.7875 15.3863 5.45057 15.0494C5.11365 14.7125 4.94519 14.3045 4.94519 13.8256V3.94519C4.94519 3.46626 5.11365 3.05833 5.45057 2.7214C5.7875 2.38447 6.19543 2.216 6.67436 2.216H16.5548C17.0337 2.216 17.4416 2.38447 17.7786 2.7214C18.1155 3.05833 18.284 3.46626 18.284 3.94519V13.8256C18.284 14.3045 18.1155 14.7125 17.7786 15.0494C17.4416 15.3863 17.0337 15.5548 16.5548 15.5548H6.67436ZM6.67436 13.8256H16.5548V3.94519H6.67436V13.8256ZM3.44519 18.7839C2.96626 18.7839 2.55833 18.6155 2.2214 18.2786C1.88447 17.9416 1.716 17.5337 1.716 17.0548V5.44519H3.44519V17.0548H15.0548V18.7839H3.44519Z" fill="#1C4980"/>
</g>
</svg>
